<svg width="512" height="512" viewBox="0 0 512 512" fill="none" xmlns="http://www.w3.org/2000/svg">
<rect width="512" height="512" rx="81" fill="white"/>
<path d="M92.318 262.672C95.3233 262.672 98.051 262.231 100.501 261.349C102.984 260.467 104.829 259.601 106.038 258.752L112.31 271.198C110.775 272.505 108.145 273.828 104.421 275.167C100.73 276.506 96.336 277.176 91.24 277.176C86.4707 277.176 81.9953 276.343 77.814 274.677C73.6327 273.011 69.9413 270.675 66.74 267.67C63.5713 264.632 61.0723 261.088 59.243 257.037C57.4463 252.954 56.548 248.527 56.548 243.758C56.548 238.989 57.4463 234.562 59.243 230.479C61.0397 226.363 63.5223 222.786 66.691 219.748C69.8923 216.71 73.5837 214.358 77.765 212.692C81.979 210.993 86.4707 210.144 91.24 210.144C96.336 210.144 100.73 210.814 104.421 212.153C108.145 213.492 110.775 214.815 112.31 216.122L106.038 228.568C104.829 227.686 102.984 226.82 100.501 225.971C98.051 225.089 95.3233 224.648 92.318 224.648C88.986 224.648 86.0787 225.171 83.596 226.216C81.1133 227.229 79.039 228.633 77.373 230.43C75.707 232.227 74.4657 234.252 73.649 236.506C72.8323 238.76 72.424 241.128 72.424 243.611C72.424 246.126 72.8323 248.527 73.649 250.814C74.4657 253.068 75.707 255.093 77.373 256.89C79.039 258.687 81.1133 260.108 83.596 261.153C86.0787 262.166 88.986 262.672 92.318 262.672ZM133.922 277.176C129.512 277.176 125.592 276.278 122.162 274.481C118.765 272.652 116.086 270.153 114.126 266.984C112.199 263.783 111.235 260.124 111.235 256.008C111.235 251.892 112.199 248.233 114.126 245.032C116.086 241.798 118.765 239.25 122.162 237.388C125.592 235.526 129.512 234.595 133.922 234.595C138.332 234.595 142.219 235.526 145.584 237.388C148.949 239.25 151.578 241.798 153.473 245.032C155.368 248.233 156.315 251.892 156.315 256.008C156.315 260.124 155.368 263.783 153.473 266.984C151.578 270.153 148.949 272.652 145.584 274.481C142.219 276.278 138.332 277.176 133.922 277.176ZM133.922 264.926C135.621 264.926 137.091 264.55 138.332 263.799C139.573 263.048 140.537 261.986 141.223 260.614C141.909 259.242 142.252 257.69 142.252 255.959C142.252 254.195 141.909 252.627 141.223 251.255C140.537 249.883 139.573 248.805 138.332 248.021C137.091 247.237 135.621 246.845 133.922 246.845C132.223 246.845 130.737 247.237 129.463 248.021C128.222 248.805 127.242 249.883 126.523 251.255C125.837 252.627 125.494 254.195 125.494 255.959C125.494 257.69 125.837 259.242 126.523 260.614C127.242 261.986 128.222 263.048 129.463 263.799C130.737 264.55 132.223 264.926 133.922 264.926ZM211.548 234.595C214.586 234.595 217.265 235.232 219.584 236.506C221.903 237.747 223.716 239.675 225.023 242.288C226.362 244.901 227.032 248.266 227.032 252.382V276H212.381V254.636C212.381 251.827 211.956 249.556 211.107 247.825C210.258 246.094 208.575 245.228 206.06 245.228C204.557 245.228 203.234 245.62 202.091 246.404C200.948 247.188 200.066 248.282 199.445 249.687C198.824 251.059 198.514 252.709 198.514 254.636V276H184.843V254.636C184.843 251.827 184.369 249.556 183.422 247.825C182.507 246.094 180.874 245.228 178.522 245.228C177.019 245.228 175.696 245.62 174.553 246.404C173.41 247.155 172.528 248.233 171.907 249.638C171.319 251.01 171.025 252.676 171.025 254.636V276H156.227V235.771H171.025V241.504C171.417 240.491 172.266 239.462 173.573 238.417C174.912 237.339 176.562 236.441 178.522 235.722C180.482 234.971 182.556 234.595 184.745 234.595C187.13 234.595 189.122 234.954 190.723 235.673C192.324 236.359 193.63 237.29 194.643 238.466C195.688 239.642 196.521 240.916 197.142 242.288C197.599 241.112 198.498 239.936 199.837 238.76C201.209 237.551 202.908 236.555 204.933 235.771C206.991 234.987 209.196 234.595 211.548 234.595ZM242.472 296.384H227.723V235.771H242.619V241.651C243.076 240.736 243.942 239.74 245.216 238.662C246.522 237.551 248.172 236.604 250.165 235.82C252.19 235.003 254.477 234.595 257.025 234.595C260.945 234.595 264.293 235.559 267.07 237.486C269.879 239.413 272.035 241.994 273.538 245.228C275.04 248.429 275.792 251.99 275.792 255.91C275.792 259.83 274.991 263.407 273.391 266.641C271.79 269.842 269.536 272.407 266.629 274.334C263.754 276.229 260.357 277.176 256.437 277.176C253.627 277.176 251.226 276.686 249.234 275.706C247.274 274.693 245.722 273.583 244.579 272.374C243.468 271.133 242.766 270.169 242.472 269.483V296.384ZM261.239 255.91C261.239 254.081 260.83 252.447 260.014 251.01C259.197 249.54 258.086 248.397 256.682 247.58C255.31 246.731 253.758 246.306 252.027 246.306C250.23 246.306 248.613 246.731 247.176 247.58C245.771 248.397 244.66 249.54 243.844 251.01C243.027 252.447 242.619 254.081 242.619 255.91C242.619 257.739 243.027 259.389 243.844 260.859C244.66 262.296 245.771 263.423 247.176 264.24C248.613 265.057 250.23 265.465 252.027 265.465C253.758 265.465 255.31 265.057 256.682 264.24C258.086 263.423 259.197 262.296 260.014 260.859C260.83 259.389 261.239 257.739 261.239 255.91ZM290.384 276H275.439V208.576H290.384V276ZM323.361 276V269.483C323.067 270.136 322.316 271.084 321.107 272.325C319.931 273.566 318.363 274.693 316.403 275.706C314.443 276.686 312.157 277.176 309.543 277.176C305.623 277.176 302.193 276.229 299.253 274.334C296.313 272.407 294.027 269.842 292.393 266.641C290.76 263.407 289.943 259.83 289.943 255.91C289.943 251.99 290.76 248.429 292.393 245.228C294.027 241.994 296.313 239.413 299.253 237.486C302.193 235.559 305.623 234.595 309.543 234.595C312.059 234.595 314.264 235.003 316.158 235.82C318.053 236.604 319.588 237.551 320.764 238.662C321.94 239.74 322.757 240.736 323.214 241.651V235.771H338.012V276H323.361ZM304.545 255.91C304.545 257.739 304.97 259.389 305.819 260.859C306.669 262.296 307.796 263.423 309.2 264.24C310.638 265.057 312.222 265.465 313.953 265.465C315.75 265.465 317.334 265.057 318.706 264.24C320.078 263.423 321.156 262.296 321.94 260.859C322.757 259.389 323.165 257.739 323.165 255.91C323.165 254.081 322.757 252.447 321.94 251.01C321.156 249.54 320.078 248.397 318.706 247.58C317.334 246.731 315.75 246.306 313.953 246.306C312.222 246.306 310.638 246.731 309.2 247.58C307.796 248.397 306.669 249.54 305.819 251.01C304.97 252.447 304.545 254.081 304.545 255.91ZM340.115 276V235.771H355.011V276H340.115ZM347.759 227.49C345.407 227.49 343.414 226.673 341.781 225.04C340.147 223.374 339.331 221.398 339.331 219.111C339.331 216.824 340.147 214.848 341.781 213.182C343.447 211.483 345.439 210.634 347.759 210.634C349.294 210.634 350.699 211.026 351.973 211.81C353.247 212.561 354.276 213.574 355.06 214.848C355.844 216.122 356.236 217.543 356.236 219.111C356.236 221.398 355.403 223.374 353.737 225.04C352.071 226.673 350.078 227.49 347.759 227.49ZM385.118 234.595C387.928 234.595 390.672 235.167 393.35 236.31C396.029 237.453 398.234 239.266 399.965 241.749C401.697 244.199 402.562 247.433 402.562 251.451V276H387.617V253.901C387.617 251.026 386.931 248.87 385.559 247.433C384.187 245.963 382.391 245.228 380.169 245.228C378.699 245.228 377.311 245.62 376.004 246.404C374.73 247.155 373.685 248.233 372.868 249.638C372.084 251.01 371.692 252.594 371.692 254.391V276H356.796V235.771H371.692V241.7C372.084 240.622 372.901 239.544 374.142 238.466C375.416 237.355 377.001 236.441 378.895 235.722C380.823 234.971 382.897 234.595 385.118 234.595ZM399.948 235.771H406.808V219.258H421.557V235.771H430.573V248.021H421.557V259.242C421.557 260.908 421.802 262.264 422.292 263.309C422.782 264.322 423.681 264.828 424.987 264.828C425.869 264.828 426.621 264.632 427.241 264.24C427.862 263.848 428.238 263.587 428.368 263.456L433.464 274.04C433.236 274.236 432.517 274.595 431.308 275.118C430.132 275.641 428.63 276.114 426.8 276.539C424.971 276.964 422.929 277.176 420.675 277.176C416.657 277.176 413.342 276.049 410.728 273.795C408.115 271.508 406.808 267.997 406.808 263.26V248.021H399.948V235.771ZM441.136 277.176C438.719 277.176 436.628 276.31 434.864 274.579C433.133 272.815 432.267 270.724 432.267 268.307C432.267 265.824 433.133 263.717 434.864 261.986C436.628 260.222 438.719 259.34 441.136 259.34C443.619 259.34 445.726 260.222 447.457 261.986C449.188 263.717 450.054 265.824 450.054 268.307C450.054 270.724 449.188 272.815 447.457 274.579C445.726 276.31 443.619 277.176 441.136 277.176Z" fill="black"/>
<path d="M272.554 283.22C273.733 283.22 274.79 283.523 275.726 284.13C276.662 284.719 277.399 285.534 277.936 286.574C278.491 287.614 278.768 288.819 278.768 290.188C278.768 291.557 278.491 292.771 277.936 293.828C277.399 294.885 276.662 295.726 275.726 296.35C274.807 296.957 273.767 297.26 272.606 297.26C271.965 297.26 271.358 297.165 270.786 296.974C270.231 296.766 269.72 296.497 269.252 296.168C268.801 295.821 268.42 295.449 268.108 295.05C267.796 294.634 267.571 294.227 267.432 293.828L268.004 293.464V296.064C268.004 296.359 267.909 296.61 267.718 296.818C267.527 297.026 267.276 297.13 266.964 297.13C266.669 297.13 266.418 297.035 266.21 296.844C266.019 296.636 265.924 296.376 265.924 296.064V278.826C265.924 278.531 266.019 278.28 266.21 278.072C266.418 277.864 266.669 277.76 266.964 277.76C267.276 277.76 267.527 277.864 267.718 278.072C267.909 278.28 268.004 278.531 268.004 278.826V286.834L267.614 286.626C267.735 286.193 267.943 285.777 268.238 285.378C268.55 284.962 268.923 284.598 269.356 284.286C269.807 283.957 270.301 283.697 270.838 283.506C271.393 283.315 271.965 283.22 272.554 283.22ZM272.32 285.144C271.453 285.144 270.682 285.361 270.006 285.794C269.347 286.227 268.827 286.825 268.446 287.588C268.082 288.351 267.9 289.217 267.9 290.188C267.9 291.159 268.082 292.034 268.446 292.814C268.827 293.594 269.347 294.209 270.006 294.66C270.682 295.111 271.453 295.336 272.32 295.336C273.187 295.336 273.949 295.111 274.608 294.66C275.267 294.209 275.787 293.594 276.168 292.814C276.549 292.034 276.74 291.159 276.74 290.188C276.74 289.217 276.549 288.351 276.168 287.588C275.787 286.825 275.267 286.227 274.608 285.794C273.949 285.361 273.187 285.144 272.32 285.144ZM303.241 290.24C303.241 291.592 302.937 292.797 302.331 293.854C301.741 294.911 300.935 295.743 299.913 296.35C298.907 296.957 297.772 297.26 296.507 297.26C295.241 297.26 294.097 296.957 293.075 296.35C292.052 295.743 291.237 294.911 290.631 293.854C290.041 292.797 289.747 291.592 289.747 290.24C289.747 288.888 290.041 287.683 290.631 286.626C291.237 285.569 292.052 284.737 293.075 284.13C294.097 283.523 295.241 283.22 296.507 283.22C297.772 283.22 298.907 283.523 299.913 284.13C300.935 284.737 301.741 285.569 302.331 286.626C302.937 287.683 303.241 288.888 303.241 290.24ZM301.161 290.24C301.161 289.235 300.953 288.351 300.537 287.588C300.138 286.825 299.583 286.227 298.873 285.794C298.179 285.361 297.391 285.144 296.507 285.144C295.623 285.144 294.825 285.361 294.115 285.794C293.421 286.227 292.867 286.825 292.451 287.588C292.035 288.351 291.827 289.235 291.827 290.24C291.827 291.228 292.035 292.103 292.451 292.866C292.867 293.629 293.421 294.235 294.115 294.686C294.825 295.119 295.623 295.336 296.507 295.336C297.391 295.336 298.179 295.119 298.873 294.686C299.583 294.235 300.138 293.629 300.537 292.866C300.953 292.103 301.161 291.228 301.161 290.24ZM314.641 283.402C314.971 283.402 315.248 283.549 315.473 283.844L324.522 295.388C324.66 295.579 324.73 295.787 324.73 296.012C324.73 296.307 324.626 296.558 324.418 296.766C324.21 296.974 323.967 297.078 323.69 297.078C323.36 297.078 323.074 296.922 322.831 296.61L313.783 285.092C313.645 284.901 313.575 284.693 313.575 284.468C313.575 284.156 313.679 283.905 313.887 283.714C314.113 283.506 314.364 283.402 314.641 283.402ZM314.641 297.052C314.416 297.052 314.191 296.965 313.965 296.792C313.74 296.619 313.627 296.393 313.627 296.116C313.627 295.891 313.714 295.674 313.887 295.466L318.152 290.084L319.244 291.8L315.473 296.636C315.265 296.913 314.988 297.052 314.641 297.052ZM323.69 283.402C323.984 283.402 324.218 283.497 324.392 283.688C324.582 283.879 324.678 284.095 324.678 284.338C324.678 284.442 324.652 284.555 324.6 284.676C324.565 284.797 324.504 284.91 324.418 285.014L320.179 290.448L319.088 288.862L322.831 283.87C323.074 283.558 323.36 283.402 323.69 283.402Z" fill="black"/>
</svg>
